<svg xmlns="http://www.w3.org/2000/svg" viewBox="0 0 258.02 258.02"><defs><style>.cls-1{fill:#fff;}</style></defs><g id="Layer_2" data-name="Layer 2"><g id="Layer_1-2" data-name="Layer 1"><path class="cls-1" d="M107.91,110.75a2.57,2.57,0,1,0,0,5.12,2.57,2.57,0,1,0,0-5.12Z"/><path class="cls-1" d="M93.56,119.7c0-4.22,1.41-7.54,6.36-7.54h.79v-3.44h-1.3c-6.86,0-9.45,4.79-9.45,11.37V123H84.78v3.09H90v23.18h3.6V126.11h12.55v23.18h3.6V123H93.56Z"/><rect class="cls-1" x="118.71" y="108.72" width="3.6" height="40.57"/><path class="cls-1" d="M162.82,122.34c-3.09,0-7.65,1.13-9.67,6.3a9.42,9.42,0,0,0-9.23-6.3c-3.88,0-7.71,1.86-9,5.35V123h-3.6v26.27h3.6V134.72c.11-6.3,4.16-8.89,8.38-8.89s7.2,3.21,7.2,8.33v15.13h3.55V135.9c0-7,3.26-10.13,8.21-10.07,4.33,0,7.37,3.26,7.37,8.33v15.13h3.61V134C173.24,126.73,169.18,122.34,162.82,122.34Z"/><path class="cls-1" d="M129,0A129,129,0,1,0,246.19,183v75H258V129A129,129,0,0,0,129,0Zm0,246.19A117.18,117.18,0,1,1,246.19,129,117.18,117.18,0,0,1,129,246.19Z"/></g></g></svg>